<svg width="24" height="23" viewBox="0 0 24 23" fill="none" xmlns="http://www.w3.org/2000/svg">
<g id="Group">
<g id="Group_2">
<g id="Group_3">
<path id="Vector" d="M22.8 12.2999H22.4V3.8999C22.4 1.89988 20.8 0.299896 18.8 0.299896C17.0295 0.299896 15.7562 1.61268 15.6137 3.53619C14.6842 3.71188 14 4.51241 14 5.49988C14 5.73988 14.16 5.89987 14.4 5.89987H17.6C17.84 5.89987 18 5.73988 18 5.49988C18 4.52333 17.3309 3.72946 16.4172 3.54205C16.5367 2.27099 17.3001 1.09987 18.8 1.09987C20.36 1.09987 21.6 2.33985 21.6 3.89985V12.2999H9.56133C9.38039 11.3773 8.58267 10.6999 7.60003 10.6999C7.20005 10.2199 6.64003 9.89985 6.00005 9.89985C5.24006 9.89985 4.56005 10.3399 4.24003 10.9799C3.92002 10.8199 3.56002 10.6999 3.20002 10.6999C2.21738 10.6999 1.41966 11.3773 1.23872 12.2999H1.2C0.519984 12.2999 0 12.8198 0 13.4999C0 14.1799 0.519984 14.6999 1.2 14.6999H1.6807L2.76 18.9799C3.08002 20.2199 4.2 21.0999 5.48002 21.0999H5.80003L5.28005 22.1399C5.16005 22.3399 5.24006 22.5799 5.44003 22.6599C5.48002 22.6999 5.56003 22.6999 5.60002 22.6999C5.76 22.6999 5.88 22.6199 5.96002 22.4999L6.66 21.0999H17.76L18.44 22.4599C18.52 22.6199 18.64 22.6999 18.8 22.6999C18.88 22.6999 18.92 22.6999 18.96 22.6199C19.12 22.5398 19.2 22.2998 19.12 22.0999L18.6189 21.0977C19.8573 21.0538 20.9283 20.1888 21.24 19.0199L22.3294 14.6999H22.8C23.48 14.6999 24 14.1799 24 13.4999C24 12.8199 23.48 12.2999 22.8 12.2999ZM17.16 5.0999H14.88C15.04 4.6199 15.52 4.29988 16.04 4.29988C16.56 4.29988 17 4.6199 17.16 5.0999ZM3.20002 11.4999C3.56002 11.4999 3.88003 11.6599 4.16002 11.9399C4.24003 12.0599 4.40002 12.0999 4.56 12.0599C4.71998 12.0199 4.8 11.8999 4.83998 11.7399C4.95998 11.1399 5.43998 10.6999 6.03998 10.6999C6.48 10.6999 6.87998 10.8999 7.08 11.2999C7.16002 11.4599 7.35998 11.5399 7.52002 11.4999C7.56 11.4999 7.60003 11.4999 7.64002 11.4999C8.16 11.4999 8.60002 11.8199 8.76 12.2999H2.07998C2.24002 11.8199 2.67998 11.4999 3.20002 11.4999ZM20.52 18.7799C20.28 19.6599 19.48 20.2999 18.56 20.2999H5.52C4.59998 20.2999 3.80002 19.6599 3.56002 18.7799L2.52 14.6999H21.48L20.52 18.7799ZM22.8 13.8999H22H2.00002H1.2C0.96 13.8999 0.800016 13.7399 0.800016 13.4999C0.800016 13.2599 0.96 13.0999 1.2 13.0999H1.59998H9.19997H22.8C23.04 13.0999 23.2 13.2599 23.2 13.4999C23.2 13.7399 23.04 13.8999 22.8 13.8999Z" fill="#595959"/>
<path id="Vector_2" d="M14.4 7.6999C14.64 7.6999 14.8 7.53992 14.8 7.29992V7.0999C14.8 6.8599 14.64 6.69992 14.4 6.69992C14.16 6.69992 14 6.8599 14 7.0999V7.29992C14 7.53992 14.16 7.6999 14.4 7.6999Z" fill="#595959"/>
<path id="Vector_3" d="M14.4 9.53994C14.64 9.53994 14.8 9.33993 14.8 9.13996V8.69994C14.8 8.45994 14.64 8.29996 14.4 8.29996C14.16 8.29996 14 8.45994 14 8.69994V9.13996C14 9.37991 14.16 9.53994 14.4 9.53994Z" fill="#595959"/>
<path id="Vector_4" d="M14.4 11.1C14.64 11.1 14.8 10.94 14.8 10.7V10.5C14.8 10.26 14.64 10.1 14.4 10.1C14.16 10.1 14 10.26 14 10.5V10.7C14 10.94 14.16 11.1 14.4 11.1Z" fill="#595959"/>
<path id="Vector_5" d="M16.0001 7.6999C16.2401 7.6999 16.4001 7.53992 16.4001 7.29992V7.0999C16.4001 6.8599 16.2401 6.69992 16.0001 6.69992C15.7601 6.69992 15.6001 6.8599 15.6001 7.0999V7.29992C15.6001 7.53992 15.7601 7.6999 16.0001 7.6999Z" fill="#595959"/>
<path id="Vector_6" d="M15.6001 9.13996C15.6001 9.37996 15.7601 9.53994 16.0001 9.53994C16.2401 9.53994 16.4001 9.33993 16.4001 9.13996V8.69994C16.4001 8.45994 16.2401 8.29996 16.0001 8.29996C15.7601 8.29996 15.6001 8.45994 15.6001 8.69994V9.13996Z" fill="#595959"/>
<path id="Vector_7" d="M15.6001 10.6998C15.6001 10.9398 15.7601 11.0998 16.0001 11.0998C16.2401 11.0998 16.4001 10.9398 16.4001 10.6998V10.4998C16.4001 10.2598 16.2401 10.0998 16.0001 10.0998C15.7601 10.0998 15.6001 10.2598 15.6001 10.4998V10.6998Z" fill="#595959"/>
<path id="Vector_8" d="M17.6002 7.6999C17.8402 7.6999 18.0002 7.53992 18.0002 7.29992V7.0999C18.0002 6.8599 17.8402 6.69992 17.6002 6.69992C17.3602 6.69992 17.2002 6.8599 17.2002 7.0999V7.29992C17.2001 7.53992 17.3602 7.6999 17.6002 7.6999Z" fill="#595959"/>
<path id="Vector_9" d="M17.2002 9.13996C17.2002 9.37996 17.3602 9.53994 17.6002 9.53994C17.8402 9.53994 18.0002 9.33997 18.0002 9.13996V8.69994C18.0002 8.45994 17.8402 8.29996 17.6002 8.29996C17.3602 8.29996 17.2002 8.45994 17.2002 8.69994L17.2002 9.13996Z" fill="#595959"/>
<path id="Vector_10" d="M17.2002 10.6998C17.2002 10.9398 17.3602 11.0998 17.6002 11.0998C17.8402 11.0998 18.0002 10.9398 18.0002 10.6998V10.4998C18.0002 10.2598 17.8402 10.0998 17.6002 10.0998C17.3602 10.0998 17.2002 10.2598 17.2002 10.4998V10.6998Z" fill="#595959"/>
</g>
</g>
</g>
</svg>
