<svg width="24" height="17" viewBox="0 0 24 17" fill="none" xmlns="http://www.w3.org/2000/svg">
<g id="Group">
<g id="Group_2">
<path id="Vector" d="M20.625 5.3125H20.25V2.3125C20.2488 1.2775 19.41 0.438719 18.375 0.4375H5.625C4.59 0.438719 3.75122 1.2775 3.75 2.3125V5.3125H3.375C1.512 5.31475 0.00225 6.8245 0 8.6875V13.9375H0.75V16.5625H2.625V13.9375H21.375V16.5625H23.25V13.9375H24V8.6875C23.9977 6.8245 22.488 5.31475 20.625 5.3125ZM4.5 2.3125C4.5 1.69117 5.00367 1.1875 5.625 1.1875H18.375C18.9963 1.1875 19.5 1.69117 19.5 2.3125V5.3125H18.375V3.8125C18.375 3.19117 17.8713 2.6875 17.25 2.6875H13.875C13.2537 2.6875 12.75 3.19117 12.75 3.8125V5.3125H11.25V3.8125C11.25 3.19117 10.7463 2.6875 10.125 2.6875H6.75C6.12867 2.6875 5.625 3.19117 5.625 3.8125V5.3125H4.5V2.3125ZM17.625 3.8125V5.3125H13.5V3.8125C13.5 3.60541 13.6679 3.4375 13.875 3.4375H17.25C17.4571 3.4375 17.625 3.60541 17.625 3.8125ZM10.5 3.8125V5.3125H6.375V3.8125C6.375 3.60541 6.54291 3.4375 6.75 3.4375H10.125C10.3321 3.4375 10.5 3.60541 10.5 3.8125ZM1.875 15.8125H1.5V13.9375H1.875V15.8125ZM22.5 15.8125H22.125V13.9375H22.5V15.8125ZM23.25 13.1875H0.75V11.3125H23.25V13.1875ZM23.25 10.5625H0.75V8.6875C0.751641 7.23845 1.92595 6.06414 3.375 6.0625H20.625C22.074 6.06414 23.2484 7.23845 23.25 8.6875V10.5625Z" fill="#595959"/>
</g>
</g>
</svg>
