<svg width="24" height="25" viewBox="0 0 24 25" fill="none" xmlns="http://www.w3.org/2000/svg">
<g id="Group">
<g id="Group_2">
<g id="Group_3">
<path id="Vector" d="M23.6 5.70007H14.8C14.5791 5.70007 14.4 5.87917 14.4 6.10007V15.7001H12.4V15.3001H12.8C13.0209 15.3001 13.2 15.121 13.2 14.9001C13.2 14.6792 13.0209 14.5001 12.8 14.5001H8.8C8.5791 14.5001 8.4 14.6792 8.4 14.9001C8.4 15.121 8.5791 15.3001 8.8 15.3001H9.2V15.7001H5.2V15.3001H5.6C5.8209 15.3001 6 15.121 6 14.9001C6 14.6792 5.8209 14.5001 5.6 14.5001H1.6C1.3791 14.5001 1.2 14.6792 1.2 14.9001C1.2 15.121 1.3791 15.3001 1.6 15.3001H2V15.7001H0.4C0.1791 15.7001 0 15.8792 0 16.1001V24.1001C0 24.321 0.1791 24.5001 0.4 24.5001H23.6C23.8209 24.5001 24 24.321 24 24.1001V6.10007C24 5.87917 23.8209 5.70007 23.6 5.70007ZM10 15.3001H11.6V15.7001H10V15.3001ZM2.8 15.3001H4.4V15.7001H2.8V15.3001ZM6.4 23.7001H0.8V18.9001H6.4V23.7001ZM6.4 18.1001H0.8V16.5001H6.4V18.1001ZM14.4 23.7001H7.2V16.5001H14.4V23.7001ZM23.2 23.7001H15.2V12.9001H23.2V23.7001ZM23.2 12.1001H15.2V6.50007H23.2V12.1001Z" fill="#595959"/>
<path id="Vector_2" d="M8.4 22.8999H13.2C13.4209 22.8999 13.6 22.7208 13.6 22.4999V17.6999C13.6 17.479 13.4209 17.2999 13.2 17.2999H8.4C8.1791 17.2999 8 17.479 8 17.6999V22.4999C8 22.7208 8.1791 22.8999 8.4 22.8999ZM8.8 18.0999H12.8V22.0999H8.8V18.0999Z" fill="#595959"/>
<path id="Vector_3" d="M16.0001 11.6999C16.221 11.6999 16.4001 11.5208 16.4001 11.2999V9.6999C16.4001 9.479 16.221 9.2999 16.0001 9.2999C15.7792 9.2999 15.6001 9.479 15.6001 9.6999V11.2999C15.6001 11.5208 15.7792 11.6999 16.0001 11.6999Z" fill="#595959"/>
<path id="Vector_4" d="M16.0001 15.6999C16.221 15.6999 16.4001 15.5208 16.4001 15.2999V13.6999C16.4001 13.479 16.221 13.2999 16.0001 13.2999C15.7792 13.2999 15.6001 13.479 15.6001 13.6999V15.2999C15.6001 15.5208 15.7792 15.6999 16.0001 15.6999Z" fill="#595959"/>
<path id="Vector_5" d="M0.942911 7.607C1.01501 7.6672 1.10596 7.7001 1.19991 7.7H13.1999C13.4208 7.7003 13.6002 7.5215 13.6005 7.3006C13.6007 7.2067 13.5677 7.1157 13.5075 7.0436L9.50751 2.2436C9.43136 2.15245 9.31866 2.09985 9.19991 2.1H8.79991V0.9C8.79991 0.6791 8.62081 0.5 8.39991 0.5H5.99991C5.77901 0.5 5.59991 0.6791 5.59991 0.9V2.1H5.19991C5.08116 2.09985 4.96846 2.15245 4.89231 2.2436L0.892311 7.0436C0.750711 7.21315 0.773361 7.4654 0.942911 7.607ZM6.39991 1.3H7.99991V2.1H6.39991V1.3ZM5.38751 2.9H9.01231L12.3459 6.9H2.05391L5.38751 2.9Z" fill="#595959"/>
</g>
</g>
</g>
</svg>
